<svg width="30" height="30" viewBox="0 0 30 30" fill="none" xmlns="http://www.w3.org/2000/svg">
<path d="M14.4327 11.0912L14.7862 11.4446L15.1397 11.0914L20.5581 5.67729C21.0487 5.20433 21.7052 4.94259 22.3868 4.9484C23.0696 4.95422 23.7228 5.22815 24.2055 5.71111C24.6882 6.19408 24.9619 6.8474 24.9673 7.53023C24.9728 8.21174 24.7108 8.86816 24.2376 9.35853L18.8256 14.7705L18.4721 15.124L18.8255 15.4776L24.2341 20.8883L24.234 20.8884L24.2409 20.895C24.4899 21.1348 24.6887 21.4217 24.8255 21.7392C24.9623 22.0567 25.0344 22.3982 25.0377 22.7439C25.041 23.0895 24.9753 23.4324 24.8445 23.7523C24.7138 24.0723 24.5205 24.363 24.2761 24.6075C24.0317 24.8519 23.741 25.0451 23.421 25.1759C23.101 25.3067 22.7581 25.3724 22.4125 25.3691C22.0668 25.3658 21.7253 25.2937 21.4078 25.1568C21.0904 25.02 20.8034 24.8213 20.5636 24.5723L20.5637 24.5722L20.5571 24.5656L15.1399 19.1463L14.7858 18.7921L14.4322 19.1468L9.02699 24.5691C8.53644 25.0419 7.88003 25.3035 7.19867 25.2977C6.51584 25.2918 5.86265 25.0179 5.37992 24.5349C4.89719 24.052 4.62359 23.3987 4.6181 22.7158C4.61262 22.0343 4.87467 21.3779 5.34786 20.8875L10.7598 15.4755L11.1133 15.122L10.7599 14.7685L5.34063 9.34704L5.34071 9.34696L5.33278 9.33936C5.08296 9.10019 4.8834 8.81356 4.7458 8.49626C4.60819 8.17897 4.53531 7.8374 4.53141 7.49157C4.52752 7.14575 4.59271 6.80262 4.72314 6.48231C4.85357 6.162 5.04663 5.87095 5.29101 5.62622C5.53538 5.38149 5.82614 5.188 6.14626 5.0571C6.46638 4.9262 6.80941 4.86051 7.15524 4.86389C7.50107 4.86728 7.84275 4.93966 8.16025 5.0768C8.47774 5.21394 8.76467 5.41308 9.00421 5.66255L9.00413 5.66262L9.01131 5.6698L14.4327 11.0912Z" fill="#7327C4" stroke="white"/>
</svg>
