<svg width="26" height="26" viewBox="0 0 26 26" fill="none" xmlns="http://www.w3.org/2000/svg">
<g clip-path="url(#clip0_440_1234)">
<path d="M4.90911 23.4776L4.91366 23.4194V23.361L4.91366 3.25L4.91366 3.24914C4.91352 3.01949 4.95864 2.79206 5.04644 2.57985C5.13423 2.36764 5.26298 2.17481 5.42532 2.01237C5.58766 1.84994 5.78042 1.72108 5.99258 1.63317C6.20474 1.54525 6.43214 1.5 6.6618 1.5L19.6507 1.5L19.6515 1.5C19.8813 1.49987 20.1088 1.54502 20.321 1.63288C20.5333 1.72073 20.7262 1.84957 20.8886 2.01202C21.0511 2.17447 21.1799 2.36734 21.2678 2.57962C21.3556 2.79189 21.4008 3.0194 21.4007 3.24914V3.25V23.361V23.4175L21.4049 23.4738C21.4185 23.6537 21.3806 23.8337 21.2957 23.9929C21.2109 24.1521 21.0825 24.2839 20.9256 24.3729L21.6656 25.6777L20.9255 24.3729C20.7686 24.4619 20.5896 24.5045 20.4094 24.4956C20.2292 24.4868 20.0553 24.4268 19.9078 24.3229L19.8603 24.2894L19.8103 24.2596L13.9232 20.757L13.1566 20.301L12.3898 20.7567L6.49709 24.2593L6.44624 24.2895L6.39792 24.3237C6.25122 24.4273 6.07803 24.4871 5.89861 24.4959C5.7192 24.5047 5.54098 24.4623 5.3848 24.3735C5.22862 24.2848 5.10094 24.1534 5.0167 23.9947C4.93247 23.8361 4.89515 23.6567 4.90911 23.4776Z" fill="#7327C4" stroke="#7327C4" stroke-width="3"/>
</g>
<defs>
<clipPath id="clip0_440_1234">
<rect width="26" height="26" fill="white"/>
</clipPath>
</defs>
</svg>
